# xmcd
#
# Track frame offsets:
#	183
#	14783
#	29970
#	42233
#	56208
#	72483
#	84408
#	96108
#	110083
#	132958
#	150633
#	164033
#	177333
#	192683
#
# Disc length: 2868
#
# Revision: 1
# Processed by: cddbd v1.5.1PL0 Copyright (c) Steve Scherf et al.
# Submitted via: dBpowerAMP V4.0
# Normalized: r0:TDELIM( - )
#
DISCID=d80b320e
DTITLE=Various Artist - Black Feelings
DYEAR=1900
DGENRE=Soul
TTITLE0=The Drifters - Yellow Ribbon
TTITLE1=Percy Sledge - Warm and Tender Love
TTITLE2=Aretha Franklin - I Never Loved A Man
TTITLE3=Louis Armstrong - A Kiss to Build a Dream On
TTITLE4=Harold Melvin and The Blue Notes - If You Don't Know Me By Now
TTITLE5=Ben E. King - GoodNight  My Love
TTITLE6=The Platters - Only You
TTITLE7=Wilson Pickett - It's Too Late
TTITLE8=Dee Dee Bridgewaters and Ray Charles - Till The Next Somewhere
TTITLE9=Ray Charles - Ruby
TTITLE10=The Platters - My Prayer-Rogar
TTITLE11=Brook Benton - A Lover's Question
TTITLE12=Shirley Bassey - Yesterday
TTITLE13=Ella itzgerald and Luois armstrong - Tenderly
EXTD=
EXTT0=
EXTT1=
EXTT2=
EXTT3=
EXTT4=
EXTT5=
EXTT6=
EXTT7=
EXTT8=
EXTT9=
EXTT10=
EXTT11=
EXTT12=
EXTT13=
PLAYORDER=
